<?xml version="1.0" encoding="UTF-8" standalone="no"?>
<!-- Created with Inkscape (http://www.inkscape.org/) -->

<svg
   xmlns:dc="http://purl.org/dc/elements/1.1/"
   xmlns:cc="http://creativecommons.org/ns#"
   xmlns:rdf="http://www.w3.org/1999/02/22-rdf-syntax-ns#"
   xmlns:svg="http://www.w3.org/2000/svg"
   xmlns="http://www.w3.org/2000/svg"
   xmlns:sodipodi="http://sodipodi.sourceforge.net/DTD/sodipodi-0.dtd"
   xmlns:inkscape="http://www.inkscape.org/namespaces/inkscape"
   width="200mm"
   height="200mm"
   viewBox="0 0 200 200"
   version="1.1"
   id="svg1552"
   inkscape:version="0.92.5 (2060ec1f9f, 2020-04-08)"
   sodipodi:docname="temperature_information_blank.svg">
  <defs
     id="defs1546" />
  <sodipodi:namedview
     id="base"
     pagecolor="#ffffff"
     bordercolor="#666666"
     borderopacity="1.0"
     inkscape:pageopacity="0.0"
     inkscape:pageshadow="2"
     inkscape:zoom="0.98994949"
     inkscape:cx="224.49777"
     inkscape:cy="409.46914"
     inkscape:document-units="mm"
     inkscape:current-layer="layer3"
     showgrid="false"
     fit-margin-top="0"
     fit-margin-left="0"
     fit-margin-right="0"
     fit-margin-bottom="0"
     inkscape:window-width="1920"
     inkscape:window-height="1016"
     inkscape:window-x="1920"
     inkscape:window-y="27"
     inkscape:window-maximized="1" />
  <metadata
     id="metadata1549">
    <rdf:RDF>
      <cc:Work
         rdf:about="">
        <dc:format>image/svg+xml</dc:format>
        <dc:type
           rdf:resource="http://purl.org/dc/dcmitype/StillImage" />
        <dc:title />
      </cc:Work>
    </rdf:RDF>
  </metadata>
  <g
     inkscape:groupmode="layer"
     id="layer2"
     inkscape:label="Layer 2"
     sodipodi:insensitive="true" />
  <g
     inkscape:groupmode="layer"
     id="layer3"
     inkscape:label="Layer 3"
     style="display:inline">
    <path
       style="opacity:1;vector-effect:none;fill:#ffffff;fill-opacity:1;fill-rule:nonzero;stroke:none;stroke-width:18.89763832;stroke-linecap:round;stroke-linejoin:round;stroke-miterlimit:4;stroke-dasharray:113.38582828, 113.38582828;stroke-dashoffset:0;stroke-opacity:1;paint-order:fill markers stroke"
       d="M 377.95312 113.52539 C 355.96761 113.52539 338.26758 131.22347 338.26758 153.20898 L 338.26758 462.26172 A 94.488189 94.488189 0 0 0 283.46484 547.89062 A 94.488189 94.488189 0 0 0 377.95312 642.37891 A 94.488189 94.488189 0 0 0 472.44141 547.89062 A 94.488189 94.488189 0 0 0 417.63867 462.25781 L 417.63867 153.20898 C 417.63867 131.22347 399.93865 113.52539 377.95312 113.52539 z M 376.94336 150.73047 C 379.13333 150.73047 381.19097 150.91859 383.11523 151.2832 C 385.0395 151.64781 386.83007 152.18932 388.48633 152.89258 C 390.14259 153.59583 391.66287 154.46062 393.04883 155.47656 C 394.43479 156.49251 395.68547 157.65827 396.79883 158.96094 C 397.91219 160.26361 398.89005 161.70414 399.72852 163.26758 C 400.56698 164.83101 401.26685 166.51817 401.82812 168.31641 C 402.3894 170.11465 402.81196 172.02417 403.09375 174.03125 C 403.37554 176.03833 403.51562 178.14207 403.51562 180.33203 L 403.51562 478.12305 C 406.8402 479.66166 410.11008 481.4408 413.28711 483.43164 C 416.46413 485.42248 419.54889 487.62589 422.50195 490.01562 C 425.45502 492.40536 428.27699 494.98149 430.92969 497.7168 C 433.58239 500.45211 436.06588 503.34744 438.3418 506.375 C 440.61772 509.40256 442.68703 512.56163 444.50977 515.82812 C 446.3325 519.09462 447.90803 522.46782 449.20117 525.91992 C 450.49431 529.37202 451.50427 532.9039 452.19141 536.48828 C 452.53497 538.28047 452.79882 540.08512 452.97656 541.90039 C 453.1543 543.71566 453.24568 545.54137 453.24805 547.37305 C 453.24805 549.97208 453.11643 552.5391 452.85938 555.07031 C 452.60232 557.60152 452.22025 560.0961 451.71875 562.54688 C 451.21725 564.99765 450.59661 567.40595 449.86328 569.76367 C 449.12995 572.1214 448.28457 574.42959 447.33203 576.68164 C 446.37949 578.9337 445.31929 581.1299 444.16016 583.26367 C 443.00102 585.39744 441.74178 587.46783 440.38867 589.4707 C 439.03556 591.47357 437.58916 593.40822 436.05469 595.26758 C 434.52021 597.12693 432.89854 598.91201 431.19531 600.61523 C 429.49209 602.31846 427.70701 603.94013 425.84766 605.47461 C 423.9883 607.00909 422.05365 608.45548 420.05078 609.80859 C 418.04791 611.16171 415.97752 612.42095 413.84375 613.58008 C 411.70998 614.73921 409.51377 615.79942 407.26172 616.75195 C 405.00966 617.70449 402.70147 618.54988 400.34375 619.2832 C 397.98603 620.01653 395.57773 620.63717 393.12695 621.13867 C 390.67618 621.64017 388.1816 622.02224 385.65039 622.2793 C 383.11918 622.53635 380.55216 622.66797 377.95312 622.66797 C 375.35409 622.66797 372.78512 622.53635 370.25391 622.2793 C 367.7227 622.02224 365.22812 621.64017 362.77734 621.13867 C 360.32657 620.63717 357.92022 620.01653 355.5625 619.2832 C 353.20478 618.54988 350.89659 617.70449 348.64453 616.75195 C 346.39248 615.79942 344.19627 614.73921 342.0625 613.58008 C 339.92873 612.42095 337.85639 611.16171 335.85352 609.80859 C 333.85064 608.45548 331.91795 607.00908 330.05859 605.47461 C 328.19924 603.94013 326.41416 602.31846 324.71094 600.61523 C 323.00771 598.91201 321.38604 597.12693 319.85156 595.26758 C 318.31709 593.40822 316.87069 591.47357 315.51758 589.4707 C 314.16447 587.46783 312.90327 585.39744 311.74414 583.26367 C 310.58501 581.1299 309.52676 578.9337 308.57422 576.68164 C 307.62168 574.42959 306.7763 572.12139 306.04297 569.76367 C 305.30964 567.40595 304.689 564.99765 304.1875 562.54688 C 303.686 560.0961 303.30393 557.60152 303.04688 555.07031 C 302.78982 552.5391 302.6582 549.97208 302.6582 547.37305 C 302.66055 545.54144 302.75195 543.7199 302.92969 541.91211 C 303.10743 540.10431 303.37127 538.30956 303.71484 536.53125 C 304.40199 532.97464 305.40995 529.48272 306.70312 526.07812 C 307.9963 522.67353 309.57371 519.35754 311.39648 516.15039 C 313.21926 512.94324 315.2885 509.84514 317.56445 506.88086 C 319.84041 503.91658 322.32385 501.08615 324.97656 498.41016 C 327.62927 495.73417 330.45125 493.21336 333.4043 490.87109 C 336.35734 488.52882 339.44023 486.36352 342.61719 484.40039 C 345.79415 482.43726 349.06423 480.67528 352.38867 479.13672 L 351.37891 180.33203 C 351.3715 178.14208 351.49207 176.03833 351.74219 174.03125 C 351.9923 172.02417 352.37223 170.11464 352.88477 168.31641 C 353.3973 166.51817 354.04241 164.83101 354.82227 163.26758 C 355.60212 161.70414 356.51628 160.26361 357.56836 158.96094 C 358.62044 157.65826 359.80947 156.49251 361.13867 155.47656 C 362.46787 154.46061 363.93761 153.59584 365.54883 152.89258 C 367.16005 152.18932 368.91436 151.64781 370.8125 151.2832 C 372.71064 150.91859 374.7534 150.73047 376.94336 150.73047 z "
       id="path1018"
       transform="scale(0.26458333)" />
    <path
       style="opacity:1;vector-effect:none;fill:#ffffff;fill-opacity:1;fill-rule:nonzero;stroke:none;stroke-width:2.72821188;stroke-linecap:round;stroke-linejoin:round;stroke-miterlimit:4;stroke-dasharray:16.36927052, 16.36927052000000060;stroke-dashoffset:0;stroke-opacity:1;paint-order:fill markers stroke"
       d="m 99.950631,73.367856 c -3.17401,0 -4.64201,2.189039 -4.63128,5.363022 l 0.18301,54.133662 c -4.818257,2.2299 -9.002988,7.05284 -9.009799,12.36207 -6e-6,7.53376 6.107313,13.64108 13.641068,13.64107 7.53376,1e-5 13.64109,-6.10731 13.64108,-13.64107 -0.007,-5.30944 -4.19137,-10.31566 -9.00981,-12.54563 V 78.730878 c 0,-3.174001 -1.64027,-5.363022 -4.814269,-5.363022 z"
       id="path1018-3-5"
       inkscape:connector-curvature="0"
       sodipodi:nodetypes="sscccccss" />
  </g>
</svg>
