<?xml version="1.0" encoding="UTF-8" standalone="no"?>
<!-- Created with Inkscape (http://www.inkscape.org/) -->

<svg
   xmlns:dc="http://purl.org/dc/elements/1.1/"
   xmlns:cc="http://creativecommons.org/ns#"
   xmlns:rdf="http://www.w3.org/1999/02/22-rdf-syntax-ns#"
   xmlns:svg="http://www.w3.org/2000/svg"
   xmlns="http://www.w3.org/2000/svg"
   xmlns:sodipodi="http://sodipodi.sourceforge.net/DTD/sodipodi-0.dtd"
   xmlns:inkscape="http://www.inkscape.org/namespaces/inkscape"
   width="200mm"
   height="200mm"
   viewBox="0 0 200 200"
   version="1.1"
   id="svg1552"
   inkscape:version="0.92.5 (2060ec1f9f, 2020-04-08)"
   sodipodi:docname="chemical_information_blank.svg">
  <defs
     id="defs1546" />
  <sodipodi:namedview
     id="base"
     pagecolor="#ffffff"
     bordercolor="#666666"
     borderopacity="1.0"
     inkscape:pageopacity="0.0"
     inkscape:pageshadow="2"
     inkscape:zoom="0.98994949"
     inkscape:cx="528.95004"
     inkscape:cy="360.0668"
     inkscape:document-units="mm"
     inkscape:current-layer="layer3"
     showgrid="false"
     fit-margin-top="0"
     fit-margin-left="0"
     fit-margin-right="0"
     fit-margin-bottom="0"
     inkscape:window-width="1920"
     inkscape:window-height="1016"
     inkscape:window-x="1920"
     inkscape:window-y="27"
     inkscape:window-maximized="1" />
  <metadata
     id="metadata1549">
    <rdf:RDF>
      <cc:Work
         rdf:about="">
        <dc:format>image/svg+xml</dc:format>
        <dc:type
           rdf:resource="http://purl.org/dc/dcmitype/StillImage" />
        <dc:title />
      </cc:Work>
    </rdf:RDF>
  </metadata>
  <g
     inkscape:groupmode="layer"
     id="layer2"
     inkscape:label="Layer 2"
     sodipodi:insensitive="true" />
  <g
     inkscape:groupmode="layer"
     id="layer3"
     inkscape:label="Layer 3"
     style="display:inline">
    <path
       style="opacity:1;vector-effect:none;fill:#ffffff;fill-opacity:1;fill-rule:nonzero;stroke:none;stroke-width:19.05499649;stroke-linecap:round;stroke-linejoin:round;stroke-miterlimit:4;stroke-dasharray:none;stroke-dashoffset:0;stroke-opacity:1;paint-order:fill markers stroke"
       d="M 270.4707 38.275391 L 270.4707 57.46875 L 289.36914 57.46875 L 289.36914 346.68164 L 142.25391 460.01953 L 142.32422 460.01953 C 116.61597 482.21456 100.39258 515.07107 100.39258 551.85547 C 100.39258 619.01041 154.45639 673.07227 221.61133 673.07227 L 546.10352 673.07227 C 613.25842 673.07227 667.32227 619.01041 667.32227 551.85547 C 667.32227 515.07107 651.10083 482.21456 625.39258 460.01953 L 625.46094 460.01953 L 478.3457 346.68164 L 478.3457 57.46875 L 497.24414 57.46875 L 497.24414 38.275391 L 270.4707 38.275391 z M 224.25391 481.14453 L 556.59375 481.14453 C 558.48248 481.14453 560.32484 481.33318 562.10352 481.69531 C 563.88219 482.05744 565.59786 482.593 567.23047 483.28125 C 568.86308 483.9695 570.41275 484.81071 571.86328 485.78906 C 573.31382 486.76741 574.66404 487.88279 575.89648 489.11523 C 577.12893 490.34768 578.2443 491.6979 579.22266 493.14844 C 580.20101 494.59897 581.04222 496.14864 581.73047 497.78125 C 582.41871 499.41386 582.95428 501.12953 583.31641 502.9082 C 583.67853 504.68688 583.86719 506.52924 583.86719 508.41797 L 583.86719 582.16016 C 583.86719 584.04889 583.67853 585.89124 583.31641 587.66992 C 582.95428 589.4486 582.41871 591.16231 581.73047 592.79492 C 581.04222 594.42753 580.20101 595.97915 579.22266 597.42969 C 578.2443 598.88022 577.12893 600.23044 575.89648 601.46289 C 574.66404 602.69534 573.31382 603.80876 571.86328 604.78711 C 570.41275 605.76546 568.86308 606.60863 567.23047 607.29688 C 565.59786 607.98512 563.88219 608.51873 562.10352 608.88086 C 560.32484 609.24299 558.48248 609.43359 556.59375 609.43359 L 224.25391 609.43359 C 222.36517 609.43359 220.52282 609.24299 218.74414 608.88086 C 216.96546 608.51873 215.2498 607.98512 213.61719 607.29688 C 211.98458 606.60863 210.43491 605.76546 208.98438 604.78711 C 207.53384 603.80876 206.18362 602.69534 204.95117 601.46289 C 203.71872 600.23044 202.60335 598.88022 201.625 597.42969 C 200.64665 595.97915 199.80543 594.42753 199.11719 592.79492 C 198.42894 591.16231 197.89338 589.4486 197.53125 587.66992 C 197.16912 585.89124 196.98047 584.04889 196.98047 582.16016 L 196.98047 508.41797 C 196.98047 506.52924 197.16912 504.68688 197.53125 502.9082 C 197.89338 501.12953 198.42894 499.41386 199.11719 497.78125 C 199.80543 496.14864 200.64665 494.59897 201.625 493.14844 C 202.60335 491.6979 203.71872 490.34768 204.95117 489.11523 C 206.18362 487.88279 207.53384 486.76741 208.98438 485.78906 C 210.43491 484.81071 211.98458 483.9695 213.61719 483.28125 C 215.2498 482.593 216.96546 482.05744 218.74414 481.69531 C 220.52282 481.33318 222.36517 481.14453 224.25391 481.14453 z "
       id="rect1350"
       transform="scale(0.26458333)" />
  </g>
</svg>
