<?xml version="1.0" encoding="UTF-8" standalone="no"?>
<!-- Created with Inkscape (http://www.inkscape.org/) -->

<svg
   xmlns:dc="http://purl.org/dc/elements/1.1/"
   xmlns:cc="http://creativecommons.org/ns#"
   xmlns:rdf="http://www.w3.org/1999/02/22-rdf-syntax-ns#"
   xmlns:svg="http://www.w3.org/2000/svg"
   xmlns="http://www.w3.org/2000/svg"
   xmlns:sodipodi="http://sodipodi.sourceforge.net/DTD/sodipodi-0.dtd"
   xmlns:inkscape="http://www.inkscape.org/namespaces/inkscape"
   width="200mm"
   height="200mm"
   viewBox="0 0 200 200"
   version="1.1"
   id="svg1552"
   inkscape:version="0.92.5 (2060ec1f9f, 2020-04-08)"
   sodipodi:docname="general_information_blank.svg">
  <defs
     id="defs1546" />
  <sodipodi:namedview
     id="base"
     pagecolor="#ffffff"
     bordercolor="#666666"
     borderopacity="1.0"
     inkscape:pageopacity="0.0"
     inkscape:pageshadow="2"
     inkscape:zoom="0.7"
     inkscape:cx="444.1915"
     inkscape:cy="251.59865"
     inkscape:document-units="mm"
     inkscape:current-layer="g2238"
     showgrid="false"
     fit-margin-top="0"
     fit-margin-left="0"
     fit-margin-right="0"
     fit-margin-bottom="0"
     inkscape:window-width="1920"
     inkscape:window-height="1016"
     inkscape:window-x="1920"
     inkscape:window-y="27"
     inkscape:window-maximized="1" />
  <metadata
     id="metadata1549">
    <rdf:RDF>
      <cc:Work
         rdf:about="">
        <dc:format>image/svg+xml</dc:format>
        <dc:type
           rdf:resource="http://purl.org/dc/dcmitype/StillImage" />
        <dc:title></dc:title>
      </cc:Work>
    </rdf:RDF>
  </metadata>
  <g
     inkscape:label="Layer 1"
     inkscape:groupmode="layer"
     id="layer1"
     transform="translate(-6.0476193,-10.494046)">
    <g
       id="g2238"
       transform="translate(1.0301549,-1.229003)">
      <path
         style="opacity:1;vector-effect:none;fill:#fffdfd;fill-opacity:1;fill-rule:nonzero;stroke:#000000;stroke-width:0;stroke-linecap:round;stroke-linejoin:round;stroke-miterlimit:4;stroke-dasharray:none;stroke-dashoffset:54.19842529;stroke-opacity:1;paint-order:fill markers stroke"
         d="M 187.88672 422.46484 A 94.488189 94.488189 0 0 0 93.398438 516.95312 A 94.488189 94.488189 0 0 0 187.88672 611.44141 A 94.488189 94.488189 0 0 0 282.375 516.95312 A 94.488189 94.488189 0 0 0 187.88672 422.46484 z M 187.88672 488.38086 A 7.1428569 28.571428 0 0 1 188.59961 488.52344 A 7.1428569 28.571428 0 0 1 189.30664 488.95117 A 7.1428569 28.571428 0 0 1 189.99805 489.65625 A 7.1428569 28.571428 0 0 1 190.66797 490.63672 A 7.1428569 28.571428 0 0 1 191.31055 491.87891 A 7.1428569 28.571428 0 0 1 191.91992 493.37109 A 7.1428569 28.571428 0 0 1 192.48828 495.09961 A 7.1428569 28.571428 0 0 1 193.00977 497.04688 A 7.1428569 28.571428 0 0 1 193.48242 499.19141 A 7.1428569 28.571428 0 0 1 193.89648 501.51562 A 7.1428569 28.571428 0 0 1 194.25195 503.99219 A 7.1428569 28.571428 0 0 1 194.54492 506.59961 A 7.1428569 28.571428 0 0 1 194.76953 509.30859 A 7.1428569 28.571428 0 0 1 194.92578 512.0957 A 7.1428569 28.571428 0 0 1 195.01172 514.93164 A 7.1428569 28.571428 0 0 1 195.0293 516.95312 A 7.1428569 28.571428 0 0 1 194.99414 519.80469 A 7.1428569 28.571428 0 0 1 194.88672 522.62891 A 7.1428569 28.571428 0 0 1 194.71094 525.39648 A 7.1428569 28.571428 0 0 1 194.46484 528.07812 A 7.1428569 28.571428 0 0 1 194.1543 530.65039 A 7.1428569 28.571428 0 0 1 193.78125 533.08398 A 7.1428569 28.571428 0 0 1 193.34961 535.35938 A 7.1428569 28.571428 0 0 1 192.86328 537.44727 A 7.1428569 28.571428 0 0 1 192.32617 539.33398 A 7.1428569 28.571428 0 0 1 191.74609 540.99414 A 7.1428569 28.571428 0 0 1 191.12695 542.41602 A 7.1428569 28.571428 0 0 1 190.47461 543.58203 A 7.1428569 28.571428 0 0 1 189.79688 544.48242 A 7.1428569 28.571428 0 0 1 189.10156 545.10742 A 7.1428569 28.571428 0 0 1 188.39258 545.45117 A 7.1428569 28.571428 0 0 1 187.88672 545.52344 A 7.1428569 28.571428 0 0 1 187.17383 545.38086 A 7.1428569 28.571428 0 0 1 186.4668 544.95508 A 7.1428569 28.571428 0 0 1 185.77539 544.24805 A 7.1428569 28.571428 0 0 1 185.10547 543.26758 A 7.1428569 28.571428 0 0 1 184.46289 542.02539 A 7.1428569 28.571428 0 0 1 183.85352 540.5332 A 7.1428569 28.571428 0 0 1 183.28516 538.80469 A 7.1428569 28.571428 0 0 1 182.76367 536.85742 A 7.1428569 28.571428 0 0 1 182.29102 534.71289 A 7.1428569 28.571428 0 0 1 181.87695 532.38867 A 7.1428569 28.571428 0 0 1 181.52148 529.91211 A 7.1428569 28.571428 0 0 1 181.22852 527.30469 A 7.1428569 28.571428 0 0 1 181.00391 524.5957 A 7.1428569 28.571428 0 0 1 180.84766 521.80859 A 7.1428569 28.571428 0 0 1 180.76172 518.97266 A 7.1428569 28.571428 0 0 1 180.74414 516.95312 A 7.1428569 28.571428 0 0 1 180.7793 514.09961 A 7.1428569 28.571428 0 0 1 180.88672 511.27539 A 7.1428569 28.571428 0 0 1 181.0625 508.50977 A 7.1428569 28.571428 0 0 1 181.30859 505.82617 A 7.1428569 28.571428 0 0 1 181.61914 503.25391 A 7.1428569 28.571428 0 0 1 181.99219 500.82031 A 7.1428569 28.571428 0 0 1 182.42383 498.54688 A 7.1428569 28.571428 0 0 1 182.91016 496.45703 A 7.1428569 28.571428 0 0 1 183.44727 494.57227 A 7.1428569 28.571428 0 0 1 184.02734 492.91016 A 7.1428569 28.571428 0 0 1 184.64648 491.48828 A 7.1428569 28.571428 0 0 1 185.29883 490.32227 A 7.1428569 28.571428 0 0 1 185.97656 489.42188 A 7.1428569 28.571428 0 0 1 186.67188 488.79688 A 7.1428569 28.571428 0 0 1 187.38086 488.45312 A 7.1428569 28.571428 0 0 1 187.88672 488.38086 z "
         id="path2097"
         transform="matrix(0.26458333,0,0,0.26458333,5.0174644,11.723049)" />
      <path
         style="opacity:1;vector-effect:none;fill:#fffdfd;fill-opacity:1;fill-rule:nonzero;stroke:#000000;stroke-width:0;stroke-linecap:round;stroke-linejoin:round;stroke-miterlimit:4;stroke-dasharray:none;stroke-dashoffset:54.19842529;stroke-opacity:1;paint-order:fill markers stroke"
         d="M 377.88672 144.46484 A 94.488188 94.488188 0 0 0 283.39844 238.95312 A 94.488188 94.488188 0 0 0 377.88672 333.44141 A 94.488188 94.488188 0 0 0 472.375 238.95312 A 94.488188 94.488188 0 0 0 377.88672 144.46484 z M 348.17969 211.06836 A 7.1428569 28.571428 0 0 1 348.89258 211.21289 A 7.1428569 28.571428 0 0 1 349.59961 211.63867 A 7.1428569 28.571428 0 0 1 350.29102 212.3457 A 7.1428569 28.571428 0 0 1 350.96094 213.32422 A 7.1428569 28.571428 0 0 1 351.60352 214.56641 A 7.1428569 28.571428 0 0 1 352.21289 216.06055 A 7.1428569 28.571428 0 0 1 352.78125 217.78711 A 7.1428569 28.571428 0 0 1 353.30273 219.73438 A 7.1428569 28.571428 0 0 1 353.77539 221.88086 A 7.1428569 28.571428 0 0 1 354.18945 224.20312 A 7.1428569 28.571428 0 0 1 354.54492 226.68164 A 7.1428569 28.571428 0 0 1 354.83789 229.28711 A 7.1428569 28.571428 0 0 1 355.0625 231.99805 A 7.1428569 28.571428 0 0 1 355.21875 234.78516 A 7.1428569 28.571428 0 0 1 355.30469 237.61914 A 7.1428569 28.571428 0 0 1 355.32227 239.64062 A 7.1428569 28.571428 0 0 1 355.28711 242.49219 A 7.1428569 28.571428 0 0 1 355.17969 245.31641 A 7.1428569 28.571428 0 0 1 355.00391 248.08398 A 7.1428569 28.571428 0 0 1 354.75781 250.76758 A 7.1428569 28.571428 0 0 1 354.44727 253.33789 A 7.1428569 28.571428 0 0 1 354.07422 255.77344 A 7.1428569 28.571428 0 0 1 353.64258 258.04688 A 7.1428569 28.571428 0 0 1 353.15625 260.13672 A 7.1428569 28.571428 0 0 1 352.61914 262.02148 A 7.1428569 28.571428 0 0 1 352.03906 263.68359 A 7.1428569 28.571428 0 0 1 351.41992 265.10352 A 7.1428569 28.571428 0 0 1 350.76758 266.26953 A 7.1428569 28.571428 0 0 1 350.08984 267.17188 A 7.1428569 28.571428 0 0 1 349.39453 267.79688 A 7.1428569 28.571428 0 0 1 348.68555 268.14062 A 7.1428569 28.571428 0 0 1 348.17969 268.21289 A 7.1428569 28.571428 0 0 1 347.4668 268.07031 A 7.1428569 28.571428 0 0 1 346.75977 267.64258 A 7.1428569 28.571428 0 0 1 346.06836 266.93555 A 7.1428569 28.571428 0 0 1 345.39844 265.95703 A 7.1428569 28.571428 0 0 1 344.75586 264.71484 A 7.1428569 28.571428 0 0 1 344.14648 263.22266 A 7.1428569 28.571428 0 0 1 343.57812 261.49414 A 7.1428569 28.571428 0 0 1 343.05469 259.54688 A 7.1428569 28.571428 0 0 1 342.58398 257.40039 A 7.1428569 28.571428 0 0 1 342.16992 255.07812 A 7.1428569 28.571428 0 0 1 341.81445 252.59961 A 7.1428569 28.571428 0 0 1 341.52148 249.99414 A 7.1428569 28.571428 0 0 1 341.29688 247.2832 A 7.1428569 28.571428 0 0 1 341.14062 244.49609 A 7.1428569 28.571428 0 0 1 341.05469 241.66211 A 7.1428569 28.571428 0 0 1 341.03711 239.64062 A 7.1428569 28.571428 0 0 1 341.07227 236.78906 A 7.1428569 28.571428 0 0 1 341.17969 233.96484 A 7.1428569 28.571428 0 0 1 341.35547 231.19727 A 7.1428569 28.571428 0 0 1 341.60156 228.51367 A 7.1428569 28.571428 0 0 1 341.91211 225.94336 A 7.1428569 28.571428 0 0 1 342.28516 223.50781 A 7.1428569 28.571428 0 0 1 342.7168 221.23438 A 7.1428569 28.571428 0 0 1 343.20312 219.14453 A 7.1428569 28.571428 0 0 1 343.74023 217.25977 A 7.1428569 28.571428 0 0 1 344.32031 215.59961 A 7.1428569 28.571428 0 0 1 344.93945 214.17773 A 7.1428569 28.571428 0 0 1 345.5918 213.01172 A 7.1428569 28.571428 0 0 1 346.26953 212.11133 A 7.1428569 28.571428 0 0 1 346.96484 211.48438 A 7.1428569 28.571428 0 0 1 347.67383 211.14062 A 7.1428569 28.571428 0 0 1 348.17969 211.06836 z M 408.17969 211.06836 A 7.1428568 28.571428 0 0 1 408.89258 211.21289 A 7.1428568 28.571428 0 0 1 409.59766 211.63867 A 7.1428568 28.571428 0 0 1 410.28906 212.3457 A 7.1428568 28.571428 0 0 1 410.96094 213.32422 A 7.1428568 28.571428 0 0 1 411.60352 214.56641 A 7.1428568 28.571428 0 0 1 412.21289 216.06055 A 7.1428568 28.571428 0 0 1 412.78125 217.78711 A 7.1428568 28.571428 0 0 1 413.30273 219.73438 A 7.1428568 28.571428 0 0 1 413.77344 221.88086 A 7.1428568 28.571428 0 0 1 414.18945 224.20312 A 7.1428568 28.571428 0 0 1 414.54492 226.68164 A 7.1428568 28.571428 0 0 1 414.83594 229.28711 A 7.1428568 28.571428 0 0 1 415.06055 231.99805 A 7.1428568 28.571428 0 0 1 415.2168 234.78516 A 7.1428568 28.571428 0 0 1 415.30469 237.61914 A 7.1428568 28.571428 0 0 1 415.32227 239.64062 A 7.1428568 28.571428 0 0 1 415.28516 242.49219 A 7.1428568 28.571428 0 0 1 415.17969 245.31641 A 7.1428568 28.571428 0 0 1 415.00195 248.08398 A 7.1428568 28.571428 0 0 1 414.75781 250.76758 A 7.1428568 28.571428 0 0 1 414.44727 253.33789 A 7.1428568 28.571428 0 0 1 414.07422 255.77344 A 7.1428568 28.571428 0 0 1 413.64258 258.04688 A 7.1428568 28.571428 0 0 1 413.1543 260.13672 A 7.1428568 28.571428 0 0 1 412.61914 262.02148 A 7.1428568 28.571428 0 0 1 412.03906 263.68359 A 7.1428568 28.571428 0 0 1 411.41797 265.10352 A 7.1428568 28.571428 0 0 1 410.76758 266.26953 A 7.1428568 28.571428 0 0 1 410.08984 267.17188 A 7.1428568 28.571428 0 0 1 409.39258 267.79688 A 7.1428568 28.571428 0 0 1 408.68359 268.14062 A 7.1428568 28.571428 0 0 1 408.17969 268.21289 A 7.1428568 28.571428 0 0 1 407.46484 268.07031 A 7.1428568 28.571428 0 0 1 406.75977 267.64258 A 7.1428568 28.571428 0 0 1 406.06836 266.93555 A 7.1428568 28.571428 0 0 1 405.39648 265.95703 A 7.1428568 28.571428 0 0 1 404.75391 264.71484 A 7.1428568 28.571428 0 0 1 404.14648 263.22266 A 7.1428568 28.571428 0 0 1 403.57812 261.49414 A 7.1428568 28.571428 0 0 1 403.05469 259.54688 A 7.1428568 28.571428 0 0 1 402.58398 257.40039 A 7.1428568 28.571428 0 0 1 402.16797 255.07812 A 7.1428568 28.571428 0 0 1 401.8125 252.59961 A 7.1428568 28.571428 0 0 1 401.52148 249.99414 A 7.1428568 28.571428 0 0 1 401.29688 247.2832 A 7.1428568 28.571428 0 0 1 401.14062 244.49609 A 7.1428568 28.571428 0 0 1 401.05469 241.66211 A 7.1428568 28.571428 0 0 1 401.03516 239.64062 A 7.1428568 28.571428 0 0 1 401.07227 236.78906 A 7.1428568 28.571428 0 0 1 401.17773 233.96484 A 7.1428568 28.571428 0 0 1 401.35547 231.19727 A 7.1428568 28.571428 0 0 1 401.59961 228.51367 A 7.1428568 28.571428 0 0 1 401.91016 225.94336 A 7.1428568 28.571428 0 0 1 402.2832 223.50781 A 7.1428568 28.571428 0 0 1 402.71484 221.23438 A 7.1428568 28.571428 0 0 1 403.20312 219.14453 A 7.1428568 28.571428 0 0 1 403.73828 217.25977 A 7.1428568 28.571428 0 0 1 404.32031 215.59961 A 7.1428568 28.571428 0 0 1 404.93945 214.17773 A 7.1428568 28.571428 0 0 1 405.58984 213.01172 A 7.1428568 28.571428 0 0 1 406.26758 212.11133 A 7.1428568 28.571428 0 0 1 406.96484 211.48438 A 7.1428568 28.571428 0 0 1 407.67383 211.14062 A 7.1428568 28.571428 0 0 1 408.17969 211.06836 z "
         id="path2097-3"
         transform="matrix(0.26458333,0,0,0.26458333,5.0174644,11.723049)" />
      <path
         style="opacity:1;vector-effect:none;fill:#fffdfd;fill-opacity:1;fill-rule:nonzero;stroke:#000000;stroke-width:0;stroke-linecap:round;stroke-linejoin:round;stroke-miterlimit:4;stroke-dasharray:none;stroke-dashoffset:54.19842529;stroke-opacity:1;paint-order:fill markers stroke"
         d="M 567.88477 422.46484 A 94.488187 94.488187 0 0 0 473.39648 516.95312 A 94.488187 94.488187 0 0 0 567.88477 611.44141 A 94.488187 94.488187 0 0 0 662.37305 516.95312 A 94.488187 94.488187 0 0 0 567.88477 422.46484 z M 537.88477 488.38086 A 7.1428569 28.571428 0 0 1 538.59961 488.52344 A 7.1428569 28.571428 0 0 1 539.30469 488.95117 A 7.1428569 28.571428 0 0 1 539.99609 489.65625 A 7.1428569 28.571428 0 0 1 540.66797 490.63672 A 7.1428569 28.571428 0 0 1 541.31055 491.87891 A 7.1428569 28.571428 0 0 1 541.91797 493.37109 A 7.1428569 28.571428 0 0 1 542.48633 495.09961 A 7.1428569 28.571428 0 0 1 543.00977 497.04688 A 7.1428569 28.571428 0 0 1 543.48047 499.19141 A 7.1428569 28.571428 0 0 1 543.89648 501.51562 A 7.1428569 28.571428 0 0 1 544.25195 503.99219 A 7.1428569 28.571428 0 0 1 544.54297 506.59961 A 7.1428569 28.571428 0 0 1 544.76758 509.30859 A 7.1428569 28.571428 0 0 1 544.92383 512.0957 A 7.1428569 28.571428 0 0 1 545.00977 514.93164 A 7.1428569 28.571428 0 0 1 545.0293 516.95312 A 7.1428569 28.571428 0 0 1 544.99219 519.80469 A 7.1428569 28.571428 0 0 1 544.88672 522.62891 A 7.1428569 28.571428 0 0 1 544.70898 525.39648 A 7.1428569 28.571428 0 0 1 544.46484 528.07812 A 7.1428569 28.571428 0 0 1 544.1543 530.65039 A 7.1428569 28.571428 0 0 1 543.78125 533.08398 A 7.1428569 28.571428 0 0 1 543.34961 535.35938 A 7.1428569 28.571428 0 0 1 542.86133 537.44727 A 7.1428569 28.571428 0 0 1 542.32617 539.33398 A 7.1428569 28.571428 0 0 1 541.74414 540.99414 A 7.1428569 28.571428 0 0 1 541.125 542.41602 A 7.1428569 28.571428 0 0 1 540.47461 543.58203 A 7.1428569 28.571428 0 0 1 539.79688 544.48242 A 7.1428569 28.571428 0 0 1 539.09961 545.10742 A 7.1428569 28.571428 0 0 1 538.39062 545.45117 A 7.1428569 28.571428 0 0 1 537.88477 545.52344 A 7.1428569 28.571428 0 0 1 537.17188 545.38086 A 7.1428569 28.571428 0 0 1 536.4668 544.95508 A 7.1428569 28.571428 0 0 1 535.77539 544.24805 A 7.1428569 28.571428 0 0 1 535.10352 543.26758 A 7.1428569 28.571428 0 0 1 534.46094 542.02539 A 7.1428569 28.571428 0 0 1 533.85156 540.5332 A 7.1428569 28.571428 0 0 1 533.2832 538.80469 A 7.1428569 28.571428 0 0 1 532.76172 536.85742 A 7.1428569 28.571428 0 0 1 532.29102 534.71289 A 7.1428569 28.571428 0 0 1 531.875 532.38867 A 7.1428569 28.571428 0 0 1 531.51953 529.91211 A 7.1428569 28.571428 0 0 1 531.22852 527.30469 A 7.1428569 28.571428 0 0 1 531.00391 524.5957 A 7.1428569 28.571428 0 0 1 530.8457 521.80859 A 7.1428569 28.571428 0 0 1 530.75977 518.97266 A 7.1428569 28.571428 0 0 1 530.74219 516.95312 A 7.1428569 28.571428 0 0 1 530.7793 514.09961 A 7.1428569 28.571428 0 0 1 530.88477 511.27539 A 7.1428569 28.571428 0 0 1 531.0625 508.50977 A 7.1428569 28.571428 0 0 1 531.30664 505.82617 A 7.1428569 28.571428 0 0 1 531.61719 503.25391 A 7.1428569 28.571428 0 0 1 531.99023 500.82031 A 7.1428569 28.571428 0 0 1 532.42188 498.54688 A 7.1428569 28.571428 0 0 1 532.9082 496.45703 A 7.1428569 28.571428 0 0 1 533.44531 494.57227 A 7.1428569 28.571428 0 0 1 534.02539 492.91016 A 7.1428569 28.571428 0 0 1 534.64648 491.48828 A 7.1428569 28.571428 0 0 1 535.29688 490.32227 A 7.1428569 28.571428 0 0 1 535.97461 489.42188 A 7.1428569 28.571428 0 0 1 536.67188 488.79688 A 7.1428569 28.571428 0 0 1 537.38086 488.45312 A 7.1428569 28.571428 0 0 1 537.88477 488.38086 z M 567.88477 488.38086 A 7.1428568 28.571428 0 0 1 568.59766 488.52344 A 7.1428568 28.571428 0 0 1 569.30469 488.95117 A 7.1428568 28.571428 0 0 1 569.99609 489.65625 A 7.1428568 28.571428 0 0 1 570.66602 490.63672 A 7.1428568 28.571428 0 0 1 571.31055 491.87891 A 7.1428568 28.571428 0 0 1 571.91797 493.37109 A 7.1428568 28.571428 0 0 1 572.48633 495.09961 A 7.1428568 28.571428 0 0 1 573.00977 497.04688 A 7.1428568 28.571428 0 0 1 573.48047 499.19141 A 7.1428568 28.571428 0 0 1 573.89648 501.51562 A 7.1428568 28.571428 0 0 1 574.25 503.99219 A 7.1428568 28.571428 0 0 1 574.54297 506.59961 A 7.1428568 28.571428 0 0 1 574.76758 509.30859 A 7.1428568 28.571428 0 0 1 574.92383 512.0957 A 7.1428568 28.571428 0 0 1 575.00977 514.93164 A 7.1428568 28.571428 0 0 1 575.02734 516.95312 A 7.1428568 28.571428 0 0 1 574.99219 519.80469 A 7.1428568 28.571428 0 0 1 574.88477 522.62891 A 7.1428568 28.571428 0 0 1 574.70898 525.39648 A 7.1428568 28.571428 0 0 1 574.46484 528.07812 A 7.1428568 28.571428 0 0 1 574.1543 530.65039 A 7.1428568 28.571428 0 0 1 573.78125 533.08398 A 7.1428568 28.571428 0 0 1 573.34766 535.35938 A 7.1428568 28.571428 0 0 1 572.86133 537.44727 A 7.1428568 28.571428 0 0 1 572.32617 539.33398 A 7.1428568 28.571428 0 0 1 571.74414 540.99414 A 7.1428568 28.571428 0 0 1 571.125 542.41602 A 7.1428568 28.571428 0 0 1 570.47266 543.58203 A 7.1428568 28.571428 0 0 1 569.79492 544.48242 A 7.1428568 28.571428 0 0 1 569.09961 545.10742 A 7.1428568 28.571428 0 0 1 568.39062 545.45117 A 7.1428568 28.571428 0 0 1 567.88477 545.52344 A 7.1428568 28.571428 0 0 1 567.17188 545.38086 A 7.1428568 28.571428 0 0 1 566.4668 544.95508 A 7.1428568 28.571428 0 0 1 565.77344 544.24805 A 7.1428568 28.571428 0 0 1 565.10352 543.26758 A 7.1428568 28.571428 0 0 1 564.46094 542.02539 A 7.1428568 28.571428 0 0 1 563.85156 540.5332 A 7.1428568 28.571428 0 0 1 563.2832 538.80469 A 7.1428568 28.571428 0 0 1 562.76172 536.85742 A 7.1428568 28.571428 0 0 1 562.28906 534.71289 A 7.1428568 28.571428 0 0 1 561.875 532.38867 A 7.1428568 28.571428 0 0 1 561.51953 529.91211 A 7.1428568 28.571428 0 0 1 561.22852 527.30469 A 7.1428568 28.571428 0 0 1 561.00195 524.5957 A 7.1428568 28.571428 0 0 1 560.8457 521.80859 A 7.1428568 28.571428 0 0 1 560.75977 518.97266 A 7.1428568 28.571428 0 0 1 560.74219 516.95312 A 7.1428568 28.571428 0 0 1 560.77734 514.09961 A 7.1428568 28.571428 0 0 1 560.88477 511.27539 A 7.1428568 28.571428 0 0 1 561.06055 508.50977 A 7.1428568 28.571428 0 0 1 561.30664 505.82617 A 7.1428568 28.571428 0 0 1 561.61719 503.25391 A 7.1428568 28.571428 0 0 1 561.99023 500.82031 A 7.1428568 28.571428 0 0 1 562.42188 498.54688 A 7.1428568 28.571428 0 0 1 562.9082 496.45703 A 7.1428568 28.571428 0 0 1 563.44531 494.57227 A 7.1428568 28.571428 0 0 1 564.02539 492.91016 A 7.1428568 28.571428 0 0 1 564.64453 491.48828 A 7.1428568 28.571428 0 0 1 565.29688 490.32227 A 7.1428568 28.571428 0 0 1 565.97461 489.42188 A 7.1428568 28.571428 0 0 1 566.67188 488.79688 A 7.1428568 28.571428 0 0 1 567.38086 488.45312 A 7.1428568 28.571428 0 0 1 567.88477 488.38086 z M 597.88477 488.38086 A 7.1428567 28.571428 0 0 1 598.59766 488.52344 A 7.1428567 28.571428 0 0 1 599.30469 488.95117 A 7.1428567 28.571428 0 0 1 599.99609 489.65625 A 7.1428567 28.571428 0 0 1 600.66602 490.63672 A 7.1428567 28.571428 0 0 1 601.30859 491.87891 A 7.1428567 28.571428 0 0 1 601.91797 493.37109 A 7.1428567 28.571428 0 0 1 602.48633 495.09961 A 7.1428567 28.571428 0 0 1 603.00781 497.04688 A 7.1428567 28.571428 0 0 1 603.48047 499.19141 A 7.1428567 28.571428 0 0 1 603.89453 501.51562 A 7.1428567 28.571428 0 0 1 604.25 503.99219 A 7.1428567 28.571428 0 0 1 604.54297 506.59961 A 7.1428567 28.571428 0 0 1 604.76758 509.30859 A 7.1428567 28.571428 0 0 1 604.92383 512.0957 A 7.1428567 28.571428 0 0 1 605.00977 514.93164 A 7.1428567 28.571428 0 0 1 605.02734 516.95312 A 7.1428567 28.571428 0 0 1 604.99219 519.80469 A 7.1428567 28.571428 0 0 1 604.88477 522.62891 A 7.1428567 28.571428 0 0 1 604.70898 525.39648 A 7.1428567 28.571428 0 0 1 604.46289 528.07812 A 7.1428567 28.571428 0 0 1 604.15234 530.65039 A 7.1428567 28.571428 0 0 1 603.7793 533.08398 A 7.1428567 28.571428 0 0 1 603.34766 535.35938 A 7.1428567 28.571428 0 0 1 602.86133 537.44727 A 7.1428567 28.571428 0 0 1 602.32422 539.33398 A 7.1428567 28.571428 0 0 1 601.74414 540.99414 A 7.1428567 28.571428 0 0 1 601.125 542.41602 A 7.1428567 28.571428 0 0 1 600.47266 543.58203 A 7.1428567 28.571428 0 0 1 599.79492 544.48242 A 7.1428567 28.571428 0 0 1 599.09961 545.10742 A 7.1428567 28.571428 0 0 1 598.39062 545.45117 A 7.1428567 28.571428 0 0 1 597.88477 545.52344 A 7.1428567 28.571428 0 0 1 597.17188 545.38086 A 7.1428567 28.571428 0 0 1 596.46484 544.95508 A 7.1428567 28.571428 0 0 1 595.77344 544.24805 A 7.1428567 28.571428 0 0 1 595.10352 543.26758 A 7.1428567 28.571428 0 0 1 594.46094 542.02539 A 7.1428567 28.571428 0 0 1 593.85156 540.5332 A 7.1428567 28.571428 0 0 1 593.2832 538.80469 A 7.1428567 28.571428 0 0 1 592.76172 536.85742 A 7.1428567 28.571428 0 0 1 592.28906 534.71289 A 7.1428567 28.571428 0 0 1 591.875 532.38867 A 7.1428567 28.571428 0 0 1 591.51953 529.91211 A 7.1428567 28.571428 0 0 1 591.22656 527.30469 A 7.1428567 28.571428 0 0 1 591.00195 524.5957 A 7.1428567 28.571428 0 0 1 590.8457 521.80859 A 7.1428567 28.571428 0 0 1 590.75977 518.97266 A 7.1428567 28.571428 0 0 1 590.74219 516.95312 A 7.1428567 28.571428 0 0 1 590.77734 514.09961 A 7.1428567 28.571428 0 0 1 590.88477 511.27539 A 7.1428567 28.571428 0 0 1 591.06055 508.50977 A 7.1428567 28.571428 0 0 1 591.30664 505.82617 A 7.1428567 28.571428 0 0 1 591.61719 503.25391 A 7.1428567 28.571428 0 0 1 591.99023 500.82031 A 7.1428567 28.571428 0 0 1 592.42188 498.54688 A 7.1428567 28.571428 0 0 1 592.9082 496.45703 A 7.1428567 28.571428 0 0 1 593.44531 494.57227 A 7.1428567 28.571428 0 0 1 594.02539 492.91016 A 7.1428567 28.571428 0 0 1 594.64453 491.48828 A 7.1428567 28.571428 0 0 1 595.29688 490.32227 A 7.1428567 28.571428 0 0 1 595.97461 489.42188 A 7.1428567 28.571428 0 0 1 596.66992 488.79688 A 7.1428567 28.571428 0 0 1 597.37891 488.45312 A 7.1428567 28.571428 0 0 1 597.88477 488.38086 z "
         id="path2097-3-6"
         transform="matrix(0.26458333,0,0,0.26458333,5.0174644,11.723049)" />
      <path
         d="M 48.252265,148.85073 A 62.36607,57.830357 0 0 1 48.180102,101.33948 62.36607,57.830357 0 0 1 86.511685,69.812347"
         sodipodi:open="true"
         sodipodi:end="4.410118"
         sodipodi:start="2.716873"
         sodipodi:ry="57.830357"
         sodipodi:rx="62.36607"
         sodipodi:cy="125.02084"
         sodipodi:cx="105.07738"
         sodipodi:type="arc"
         id="path2207"
         style="opacity:1;vector-effect:none;fill:none;fill-opacity:1;fill-rule:nonzero;stroke:#ffffff;stroke-width:5;stroke-linecap:round;stroke-linejoin:round;stroke-miterlimit:4;stroke-dasharray:30.00000084, 30.00000083999999845;stroke-dashoffset:0;stroke-opacity:1;paint-order:fill markers stroke" />
      <path
         d="m 119.38705,68.733326 a 62.36607,57.830357 0 0 1 40.22481,28.230552 62.36607,57.830357 0 0 1 4.54292,46.588212"
         sodipodi:open="true"
         sodipodi:end="0.32619553"
         sodipodi:start="4.9438979"
         sodipodi:ry="57.830357"
         sodipodi:rx="62.36607"
         sodipodi:cy="125.02084"
         sodipodi:cx="105.07738"
         sodipodi:type="arc"
         id="path2207-1"
         style="opacity:1;vector-effect:none;fill:none;fill-opacity:1;fill-rule:nonzero;stroke:#ffffff;stroke-width:5;stroke-linecap:round;stroke-linejoin:round;stroke-miterlimit:4;stroke-dasharray:30.00000116, 30.00000116000000006;stroke-dashoffset:0;stroke-opacity:1;paint-order:fill markers stroke" />
    </g>
    <rect
       style="opacity:1;vector-effect:none;fill:none;fill-opacity:1;fill-rule:nonzero;stroke:none;stroke-width:5;stroke-linecap:round;stroke-linejoin:round;stroke-miterlimit:4;stroke-dasharray:30.00000046, 30.00000046;stroke-dashoffset:0;stroke-opacity:1;paint-order:fill markers stroke"
       id="rect2224"
       width="200"
       height="200"
       x="6.0476193"
       y="10.494046" />
  </g>
</svg>
