<?xml version="1.0" encoding="UTF-8" standalone="no"?>
<!-- Created with Inkscape (http://www.inkscape.org/) -->

<svg
   xmlns:dc="http://purl.org/dc/elements/1.1/"
   xmlns:cc="http://creativecommons.org/ns#"
   xmlns:rdf="http://www.w3.org/1999/02/22-rdf-syntax-ns#"
   xmlns:svg="http://www.w3.org/2000/svg"
   xmlns="http://www.w3.org/2000/svg"
   xmlns:sodipodi="http://sodipodi.sourceforge.net/DTD/sodipodi-0.dtd"
   xmlns:inkscape="http://www.inkscape.org/namespaces/inkscape"
   width="200mm"
   height="200mm"
   viewBox="0 0 200 200"
   version="1.1"
   id="svg1552"
   inkscape:version="0.92.5 (2060ec1f9f, 2020-04-08)"
   sodipodi:docname="time_information_blank.svg">
  <defs
     id="defs1546" />
  <sodipodi:namedview
     id="base"
     pagecolor="#ffffff"
     bordercolor="#666666"
     borderopacity="1.0"
     inkscape:pageopacity="0.0"
     inkscape:pageshadow="2"
     inkscape:zoom="1.4"
     inkscape:cx="198.43171"
     inkscape:cy="401.92373"
     inkscape:document-units="mm"
     inkscape:current-layer="layer1"
     showgrid="false"
     fit-margin-top="0"
     fit-margin-left="0"
     fit-margin-right="0"
     fit-margin-bottom="0"
     inkscape:window-width="1920"
     inkscape:window-height="1016"
     inkscape:window-x="1920"
     inkscape:window-y="27"
     inkscape:window-maximized="1" />
  <metadata
     id="metadata1549">
    <rdf:RDF>
      <cc:Work
         rdf:about="">
        <dc:format>image/svg+xml</dc:format>
        <dc:type
           rdf:resource="http://purl.org/dc/dcmitype/StillImage" />
        <dc:title />
      </cc:Work>
    </rdf:RDF>
  </metadata>
  <g
     inkscape:groupmode="layer"
     id="layer1"
     inkscape:label="Layer 3"
     style="display:inline">
    <path
       style="opacity:1;vector-effect:none;fill:#ffffff;fill-opacity:1;fill-rule:nonzero;stroke:none;stroke-width:18.89763832;stroke-linecap:round;stroke-linejoin:round;stroke-miterlimit:4;stroke-dasharray:113.38583059, 113.38583059000001185;stroke-dashoffset:0;stroke-opacity:1;paint-order:fill markers stroke"
       d="M 380.81641 153.76562 L 380.81641 174.85938 L 375.10156 174.85938 L 375.10156 153.79883 A 226.77165 226.77165 0 0 0 151.1875 377.76367 L 175.26562 377.76367 L 175.26562 383.47852 L 151.16211 383.47852 A 226.77165 226.77165 0 0 0 374.91797 607.11914 L 374.91797 583.47461 L 380.63086 583.47461 L 380.63086 607.0625 A 226.77165 226.77165 0 0 0 604.5918 380.62109 L 580.56445 380.62109 L 580.56445 374.90625 L 604.31836 374.90625 A 226.77165 226.77165 0 0 0 380.81641 153.76562 z M 507.32617 289.84766 L 511.40039 297.00586 L 397.91211 367.23047 A 22.677165 22.677165 0 0 1 398.16211 367.66602 A 22.677165 22.677165 0 0 1 399.08789 369.73633 A 22.677165 22.677165 0 0 1 399.80273 371.88672 A 22.677165 22.677165 0 0 1 400.30078 374.09766 A 22.677165 22.677165 0 0 1 400.57227 376.34961 A 22.677165 22.677165 0 0 1 400.63086 377.95312 A 22.677165 22.677165 0 0 1 400.51758 380.2168 A 22.677165 22.677165 0 0 1 400.17773 382.45898 A 22.677165 22.677165 0 0 1 399.61719 384.6543 A 22.677165 22.677165 0 0 1 398.83984 386.7832 A 22.677165 22.677165 0 0 1 397.85352 388.82422 A 22.677165 22.677165 0 0 1 396.66992 390.75781 A 22.677165 22.677165 0 0 1 395.29688 392.5625 A 22.677165 22.677165 0 0 1 393.75195 394.2207 A 22.677165 22.677165 0 0 1 392.04883 395.7168 A 22.677165 22.677165 0 0 1 390.20508 397.03516 A 22.677165 22.677165 0 0 1 388.23828 398.16211 A 22.677165 22.677165 0 0 1 386.16992 399.08789 A 22.677165 22.677165 0 0 1 384.01953 399.80273 A 22.677165 22.677165 0 0 1 381.80664 400.30078 A 22.677165 22.677165 0 0 1 379.55664 400.57227 A 22.677165 22.677165 0 0 1 377.95312 400.63086 A 22.677165 22.677165 0 0 1 375.68945 400.51758 A 22.677165 22.677165 0 0 1 373.44727 400.17773 A 22.677165 22.677165 0 0 1 371.25195 399.61719 A 22.677165 22.677165 0 0 1 369.12109 398.83984 A 22.677165 22.677165 0 0 1 367.08008 397.85352 A 22.677165 22.677165 0 0 1 365.14844 396.66992 A 22.677165 22.677165 0 0 1 363.34375 395.29688 A 22.677165 22.677165 0 0 1 361.68555 393.75195 A 22.677165 22.677165 0 0 1 360.18945 392.04883 A 22.677165 22.677165 0 0 1 358.87109 390.20508 A 22.677165 22.677165 0 0 1 357.74219 388.23828 A 22.677165 22.677165 0 0 1 356.81641 386.16992 A 22.677165 22.677165 0 0 1 356.10156 384.01953 A 22.677165 22.677165 0 0 1 355.87695 383.02148 L 275.40625 382.9375 L 275.58594 374.70898 L 355.52539 374.79102 A 22.677165 22.677165 0 0 1 355.72852 373.44727 A 22.677165 22.677165 0 0 1 356.28906 371.25195 A 22.677165 22.677165 0 0 1 357.06641 369.12109 A 22.677165 22.677165 0 0 1 358.05078 367.08008 A 22.677165 22.677165 0 0 1 359.23633 365.14844 A 22.677165 22.677165 0 0 1 360.60742 363.34375 A 22.677165 22.677165 0 0 1 362.1543 361.68555 A 22.677165 22.677165 0 0 1 363.85547 360.18945 A 22.677165 22.677165 0 0 1 365.70117 358.87109 A 22.677165 22.677165 0 0 1 367.66602 357.74219 A 22.677165 22.677165 0 0 1 369.73633 356.81641 A 22.677165 22.677165 0 0 1 371.88672 356.10156 A 22.677165 22.677165 0 0 1 374.09766 355.60547 A 22.677165 22.677165 0 0 1 376.34961 355.33203 A 22.677165 22.677165 0 0 1 377.95312 355.27539 A 22.677165 22.677165 0 0 1 380.2168 355.38867 A 22.677165 22.677165 0 0 1 382.45898 355.72852 A 22.677165 22.677165 0 0 1 384.6543 356.28906 A 22.677165 22.677165 0 0 1 386.7832 357.06641 A 22.677165 22.677165 0 0 1 388.82422 358.05078 A 22.677165 22.677165 0 0 1 390.75781 359.23633 A 22.677165 22.677165 0 0 1 392.5625 360.60742 A 22.677165 22.677165 0 0 1 392.72656 360.75977 L 507.32617 289.84766 z "
       id="path2583"
       transform="scale(0.26458333)" />
  </g>
</svg>
