<?xml version="1.0" encoding="UTF-8" standalone="no"?>
<!-- Created with Inkscape (http://www.inkscape.org/) -->

<svg
   xmlns:dc="http://purl.org/dc/elements/1.1/"
   xmlns:cc="http://creativecommons.org/ns#"
   xmlns:rdf="http://www.w3.org/1999/02/22-rdf-syntax-ns#"
   xmlns:svg="http://www.w3.org/2000/svg"
   xmlns="http://www.w3.org/2000/svg"
   xmlns:sodipodi="http://sodipodi.sourceforge.net/DTD/sodipodi-0.dtd"
   xmlns:inkscape="http://www.inkscape.org/namespaces/inkscape"
   width="82.586273mm"
   height="113.0206mm"
   viewBox="0 0 82.586273 113.0206"
   version="1.1"
   id="svg8"
   inkscape:version="0.92.5 (2060ec1f9f, 2020-04-08)"
   sodipodi:docname="transport.svg">
  <defs
     id="defs2">
    <marker
       inkscape:stockid="Arrow2Mend"
       orient="auto"
       refY="0.0"
       refX="0.0"
       id="Arrow2Mend"
       style="overflow:visible;"
       inkscape:isstock="true">
      <path
         id="path1417"
         style="fill-rule:evenodd;stroke-width:0.625;stroke-linejoin:round;stroke:#cd0000;stroke-opacity:1;fill:#cd0000;fill-opacity:1"
         d="M 8.7185878,4.0337352 L -2.2072895,0.016013256 L 8.7185884,-4.0017078 C 6.9730900,-1.6296469 6.9831476,1.6157441 8.7185878,4.0337352 z "
         transform="scale(0.6) rotate(180) translate(0,0)" />
    </marker>
    <marker
       inkscape:stockid="Arrow2Lend"
       orient="auto"
       refY="0.0"
       refX="0.0"
       id="Arrow2Lend"
       style="overflow:visible;"
       inkscape:isstock="true">
      <path
         id="path1411"
         style="fill-rule:evenodd;stroke-width:0.625;stroke-linejoin:round;stroke:#cd0000;stroke-opacity:1;fill:#cd0000;fill-opacity:1"
         d="M 8.7185878,4.0337352 L -2.2072895,0.016013256 L 8.7185884,-4.0017078 C 6.9730900,-1.6296469 6.9831476,1.6157441 8.7185878,4.0337352 z "
         transform="scale(1.1) rotate(180) translate(1,0)" />
    </marker>
    <marker
       inkscape:stockid="Arrow1Lend"
       orient="auto"
       refY="0.0"
       refX="0.0"
       id="Arrow1Lend"
       style="overflow:visible;"
       inkscape:isstock="true">
      <path
         id="path1393"
         d="M 0.0,0.0 L 5.0,-5.0 L -12.5,0.0 L 5.0,5.0 L 0.0,0.0 z "
         style="fill-rule:evenodd;stroke:#cd0000;stroke-width:1pt;stroke-opacity:1;fill:#cd0000;fill-opacity:1"
         transform="scale(0.8) rotate(180) translate(12.5,0)" />
    </marker>
    <inkscape:perspective
       sodipodi:type="inkscape:persp3d"
       inkscape:vp_x="0 : 56.5103 : 1"
       inkscape:vp_y="0 : 1000 : 0"
       inkscape:vp_z="82.586273 : 56.5103 : 1"
       inkscape:persp3d-origin="41.293137 : 37.673533 : 1"
       id="perspective826" />
  </defs>
  <sodipodi:namedview
     id="base"
     pagecolor="#ffffff"
     bordercolor="#666666"
     borderopacity="1.0"
     inkscape:pageopacity="0.0"
     inkscape:pageshadow="2"
     inkscape:zoom="0.9899495"
     inkscape:cx="-43.213383"
     inkscape:cy="253.01003"
     inkscape:document-units="mm"
     inkscape:current-layer="g1300"
     showgrid="false"
     inkscape:window-width="1848"
     inkscape:window-height="1043"
     inkscape:window-x="72"
     inkscape:window-y="0"
     inkscape:window-maximized="1"
     fit-margin-top="0"
     fit-margin-left="0"
     fit-margin-right="0"
     fit-margin-bottom="0" />
  <metadata
     id="metadata5">
    <rdf:RDF>
      <cc:Work
         rdf:about="">
        <dc:format>image/svg+xml</dc:format>
        <dc:type
           rdf:resource="http://purl.org/dc/dcmitype/StillImage" />
        <dc:title></dc:title>
      </cc:Work>
    </rdf:RDF>
  </metadata>
  <g
     inkscape:groupmode="layer"
     id="layer2"
     inkscape:label="Layer 2"
     sodipodi:insensitive="true"
     transform="translate(-39.454488,-86.845345)" />
  <g
     inkscape:groupmode="layer"
     id="layer3"
     inkscape:label="Layer 3"
     transform="translate(-39.454488,-86.845345)">
    <g
       id="g940" />
    <g
       id="g1300"
       transform="translate(1.7008928,24.946428)">
      <rect
         style="opacity:1;vector-effect:none;fill:#215278;fill-opacity:1;fill-rule:nonzero;stroke:#102713;stroke-width:3.17561245;stroke-linecap:round;stroke-linejoin:round;stroke-miterlimit:4;stroke-dasharray:none;stroke-dashoffset:54.19842529;stroke-opacity:1;paint-order:fill markers stroke"
         id="rect2161"
         width="14.433163"
         height="9.0871639"
         x="53.050327"
         y="113.95309" />
      <rect
         style="opacity:1;vector-effect:none;fill:#215278;fill-opacity:1;fill-rule:nonzero;stroke:#102713;stroke-width:3.17561245;stroke-linecap:round;stroke-linejoin:round;stroke-miterlimit:4;stroke-dasharray:none;stroke-dashoffset:54.19842529;stroke-opacity:1;paint-order:fill markers stroke"
         id="rect2161-7"
         width="14.433163"
         height="9.0871639"
         x="53.251156"
         y="126.87239" />
      <rect
         style="opacity:1;vector-effect:none;fill:#215278;fill-opacity:1;fill-rule:nonzero;stroke:#102713;stroke-width:3.17561245;stroke-linecap:round;stroke-linejoin:round;stroke-miterlimit:4;stroke-dasharray:none;stroke-dashoffset:54.19842529;stroke-opacity:1;paint-order:fill markers stroke"
         id="rect2161-76"
         width="14.433163"
         height="9.0871639"
         x="72.499016"
         y="127.05386" />
      <rect
         style="opacity:1;vector-effect:none;fill:#000000;fill-opacity:1;fill-rule:nonzero;stroke:#000000;stroke-width:3.48399997;stroke-linecap:round;stroke-linejoin:round;stroke-miterlimit:4;stroke-dasharray:none;stroke-dashoffset:54.19842529;stroke-opacity:1;paint-order:fill markers stroke"
         id="rect2216"
         width="54.522984"
         height="8.2853546"
         x="44.969872"
         y="139.75124" />
      <rect
         style="opacity:1;vector-effect:none;fill:#3f8b8a;fill-opacity:1;fill-rule:nonzero;stroke:#000000;stroke-width:3.48399997;stroke-linecap:round;stroke-linejoin:round;stroke-miterlimit:4;stroke-dasharray:none;stroke-dashoffset:54.19842529;stroke-opacity:1;paint-order:fill markers stroke"
         id="rect2218"
         width="18.441597"
         height="18.708866"
         x="93.612923"
         y="129.34947" />
      <ellipse
         style="opacity:1;vector-effect:none;fill:#d2ecff;fill-opacity:1;fill-rule:nonzero;stroke:#000000;stroke-width:3.48399997;stroke-linecap:round;stroke-linejoin:round;stroke-miterlimit:4;stroke-dasharray:none;stroke-dashoffset:54.19842529;stroke-opacity:1;paint-order:fill markers stroke"
         id="path2220"
         cx="52.18615"
         cy="152.98105"
         rx="5.3453903"
         ry="4.8108511" />
      <ellipse
         style="opacity:1;vector-effect:none;fill:#d2ecff;fill-opacity:1;fill-rule:nonzero;stroke:#000000;stroke-width:3.48399997;stroke-linecap:round;stroke-linejoin:round;stroke-miterlimit:4;stroke-dasharray:none;stroke-dashoffset:54.19842529;stroke-opacity:1;paint-order:fill markers stroke"
         id="path2220-7"
         cx="67.002831"
         cy="152.98105"
         rx="5.3453903"
         ry="4.8108511" />
      <ellipse
         style="opacity:1;vector-effect:none;fill:#d2ecff;fill-opacity:1;fill-rule:nonzero;stroke:#000000;stroke-width:3.48399997;stroke-linecap:round;stroke-linejoin:round;stroke-miterlimit:4;stroke-dasharray:none;stroke-dashoffset:54.19842529;stroke-opacity:1;paint-order:fill markers stroke"
         id="path2220-7-3"
         cx="102.98621"
         cy="152.98105"
         rx="5.3453903"
         ry="4.8108511" />
      <rect
         style="opacity:1;vector-effect:none;fill:#000000;fill-opacity:1;fill-rule:nonzero;stroke:#000000;stroke-width:1.7938596;stroke-linecap:round;stroke-linejoin:round;stroke-miterlimit:4;stroke-dasharray:none;stroke-dashoffset:54.19842529;stroke-opacity:1;paint-order:fill markers stroke"
         id="rect2252"
         width="3.6478784"
         height="8.5615692"
         x="98.954048"
         y="135.62167" />
      <rect
         style="opacity:1;vector-effect:none;fill:#97dbff;fill-opacity:1;fill-rule:nonzero;stroke:#000000;stroke-width:0;stroke-linecap:round;stroke-linejoin:round;stroke-miterlimit:4;stroke-dasharray:none;stroke-dashoffset:54.19842529;stroke-opacity:1;paint-order:fill markers stroke"
         id="rect2254"
         width="3.5907736"
         height="6.9925594"
         x="106.70708"
         y="132.54135" />
      <rect
         style="opacity:1;vector-effect:none;fill:#feff97;fill-opacity:1;fill-rule:nonzero;stroke:#000000;stroke-width:0;stroke-linecap:round;stroke-linejoin:round;stroke-miterlimit:4;stroke-dasharray:none;stroke-dashoffset:54.19842529;stroke-opacity:1;paint-order:fill markers stroke"
         id="rect2254-6"
         width="2.4320943"
         height="2.6458354"
         x="107.89348"
         y="142.55847" />
      <g
         id="Layer_2"
         data-name="Layer 2"
         transform="matrix(1.6279548,-1.2311521,1.2311521,1.6279548,37.837938,86.03987)">
        <path
           id="path2273"
           d="M 17.94,8 V 8 L 15,8.2 12.69,2 H 7.87 L 8.7,8.62 4,8.93 V 8 H 2 v 8 H 4 V 15.07 L 8.7,15.38 7.87,22 h 4.83 l 2.3,-6.2 2.92,0.19 H 18 a 4.0001125,4.0001125 0 1 0 -0.06,-8 z m -7.8,-4 h 1.17 l 1.63,4.34 -2.24,0.15 z m 1.17,16 h -1.18 l 0.56,-4.48 2.24,0.15 z M 18,14 4,13.06 V 10.94 L 18,10 a 2,2 0 0 1 0,4 z"
           inkscape:connector-curvature="0" />
      </g>
      <g
         id="g2320"
         transform="matrix(0.03359932,0,0,0.03359932,84.055464,96.982209)"
         style="fill:#000000;fill-opacity:1">
        <circle
           id="circle2286"
           style="fill:#000000;fill-opacity:1"
           r="24.628"
           cy="548.987"
           cx="434.80899" />
        <circle
           id="ellipse2288"
           transform="matrix(0.7071,-0.7071,0.7071,0.7071,-271.4216,391.2517)"
           style="fill:#000000;fill-opacity:1"
           cy="523.26099"
           cx="336.57199"
           r="24.628" />
        <circle
           id="ellipse2290"
           transform="matrix(0.9732,-0.2298,0.2298,0.9732,-122.0055,136.9406)"
           style="fill:#000000;fill-opacity:1"
           cy="592.39697"
           cx="527.06"
           r="24.628" />
        <path
           id="path2292"
           style="fill:#000000;fill-opacity:1"
           d="m 222.249,705.774 h 589.807 c 5.361,0 10.028,-3.663 11.302,-8.87 l 5.781,-23.63 h -624.16 l 5.99,23.714 c 1.305,5.166 5.952,8.786 11.28,8.786 z"
           inkscape:connector-curvature="0" />
        <path
           id="path2294"
           style="fill:#000000;fill-opacity:1"
           d="m 846.718,601.435 c 0.62,-2.56 -1.64,-4.89 -4.211,-4.319 -14.94,3.269 -58.37,10.89 -113.32,3.5 -5.23,-0.69 -10.57,-1.53 -16,-2.521 -6.22,-1.14 -12.56,-2.47 -19,-4.04 -5.27,-1.27 -10.61,-2.71 -16,-4.3 -30.72,-9.1 -63.13,-23.57 -95,-45.981 -126.96,-89.27 -318.13,-129.35 -427.96,-79.239 -1.55,0.699 -2.36,2.439 -1.94,4.09 l 47.4,187.649 h 632.61 z m -608.38,-43.95 c -22.96,0 -41.63,-18.67 -41.63,-41.63 0,-22.949 18.67,-41.62 41.63,-41.62 22.95,0 41.62,18.671 41.62,41.62 0,22.96 -18.67,41.63 -41.62,41.63 z m 98.23,7.401 c -22.95,0 -41.62,-18.67 -41.62,-41.63 0,-22.95 18.67,-41.62 41.62,-41.62 22.96,0 41.63,18.67 41.63,41.62 0,22.96 -18.67,41.63 -41.63,41.63 z m 98.24,25.73 c -22.95,0 -41.63,-18.671 -41.63,-41.631 0,-22.949 18.68,-41.63 41.63,-41.63 22.96,0 41.63,18.681 41.63,41.63 0,22.96 -18.67,41.631 -41.63,41.631 z m 92.25,43.409 c -22.95,0 -41.63,-18.67 -41.63,-41.63 0,-22.95 18.68,-41.63 41.63,-41.63 22.96,0 41.63,18.68 41.63,41.63 0,22.961 -18.67,41.63 -41.63,41.63 z"
           inkscape:connector-curvature="0" />
        <path
           id="path2296"
           style="fill:#000000;fill-opacity:1"
           d="m 238.335,491.231 c -13.58,0 -24.628,11.048 -24.628,24.628 0,13.58 11.048,24.628 24.628,24.628 13.579,0 24.627,-11.048 24.627,-24.628 -10e-4,-13.58 -11.048,-24.628 -24.627,-24.628 z"
           inkscape:connector-curvature="0" />
        <path
           id="path2298"
           style="fill:#000000;fill-opacity:1"
           d="m 323.918,387.976 -7.13,39.99 c 95.23,9.31 197.51,46.59 276.18,101.9 12.5,8.79 25.09,16.279 37.62,22.649 l 28.36,-159.109 c 1.69,-9.48 -5.6,-18.181 -15.229,-18.181 h -304.57 c -7.501,10e-4 -13.921,5.371 -15.231,12.751 z m 245.12,16 c 0,-3.729 3.02,-6.75 6.75,-6.75 h 42.08 c 3.73,0 6.75,3.021 6.75,6.75 v 8.5 c 0,3.73 -3.02,6.75 -6.75,6.75 h -42.08 c -3.73,0 -6.75,-3.02 -6.75,-6.75 z m 0,44.65 c 0,-3.73 3.02,-6.75 6.75,-6.75 h 42.08 c 3.73,0 6.75,3.02 6.75,6.75 v 8.5 c 0,3.72 -3.02,6.75 -6.75,6.75 h -42.08 c -3.73,0 -6.75,-3.03 -6.75,-6.75 z m -71.25,-44.65 c 0,-3.729 3.02,-6.75 6.75,-6.75 h 42.08 c 3.73,0 6.75,3.021 6.75,6.75 v 8.5 c 0,3.73 -3.02,6.75 -6.75,6.75 h -42.08 c -3.73,0 -6.75,-3.02 -6.75,-6.75 z m 0,44.65 c 0,-3.73 3.02,-6.75 6.75,-6.75 h 42.08 c 3.73,0 6.75,3.02 6.75,6.75 v 8.5 c 0,3.72 -3.02,6.75 -6.75,6.75 h -42.08 c -3.73,0 -6.75,-3.03 -6.75,-6.75 z m -73.21,-44.65 c 0,-3.729 3.02,-6.75 6.75,-6.75 h 42.08 c 3.72,0 6.75,3.021 6.75,6.75 v 8.5 c 0,3.73 -3.03,6.75 -6.75,6.75 h -42.08 c -3.73,0 -6.75,-3.02 -6.75,-6.75 z m -73.21,0 c 0,-3.729 3.02,-6.75 6.75,-6.75 h 42.07 c 3.73,0 6.75,3.021 6.75,6.75 v 8.5 c 0,3.73 -3.02,6.75 -6.75,6.75 h -42.07 c -3.73,0 -6.75,-3.02 -6.75,-6.75 z"
           inkscape:connector-curvature="0" />
        <path
           id="path2300"
           style="fill:#000000;fill-opacity:1"
           d="m 377.518,303.926 -9.68,54.3 h 255.65 l 8.94,-50.16 c 1.29,-7.22 -4.26,-13.84 -11.59,-13.84 h -231.74 c -5.7,0 -10.58,4.089 -11.58,9.7 z m 168.13,18.05 c 0,-3.729 3.02,-6.75 6.75,-6.75 h 42.08 c 3.73,0 6.75,3.021 6.75,6.75 v 8.5 c 0,3.73 -3.02,6.75 -6.75,6.75 h -42.08 c -3.73,0 -6.75,-3.02 -6.75,-6.75 z m -73.21,0 c 0,-3.729 3.02,-6.75 6.75,-6.75 h 42.08 c 3.72,0 6.75,3.021 6.75,6.75 v 8.5 c 0,3.73 -3.03,6.75 -6.75,6.75 h -42.08 c -3.73,0 -6.75,-3.02 -6.75,-6.75 z m -73.21,0 c 0,-3.729 3.02,-6.75 6.75,-6.75 h 42.08 c 3.72,0 6.75,3.021 6.75,6.75 v 8.5 c 0,3.73 -3.03,6.75 -6.75,6.75 h -42.08 c -3.73,0 -6.75,-3.02 -6.75,-6.75 z"
           inkscape:connector-curvature="0" />
        <path
           id="path2302"
           style="fill:#000000;fill-opacity:1"
           d="m 694.188,576.476 c 6.45,1.66 12.79,3.07 19,4.271 5.45,1.05 10.79,1.939 16,2.68 17.18,2.44 33,3.31 46.81,3.31 13.96,0 26.35,-0.88 36.52,-2.02 v -25.83 c 0,-6.07 -4.92,-11 -11,-11 h -72.33 v -131.91 c 0,-2.62 -2.13,-4.75 -4.75,-4.75 h -6.5 c -2.62,0 -4.75,2.13 -4.75,4.75 v 131.91 h -19 v -243.91 c 0,-2.62 -2.13,-4.75 -4.75,-4.75 h -6.5 c -2.62,0 -4.75,2.13 -4.75,4.75 v 243.91 h -14 c -6.07,0 -11,4.93 -11,11 v 4 c 8.43,3.46 16.78,6.45 25,9.03 5.4,1.699 10.73,3.209 16,4.559 z"
           inkscape:connector-curvature="0" />
      </g>
    </g>
  </g>
</svg>
